PathFileType	4	(X/Y/Z)	C:\Users\Basilio\Documents\Thesis Gigler\squatting_fais\c3dfiles\040\SJ_pre3\markers_experimental.trc
DataRate	CameraRate	NumFrames	NumMarkers	Units	OrigDataRate	OrigDataStartFrame	OrigNumFrames
200.000000	200.000000	4	63	mm	200.000000	0	1251
Frame#	Time	FHD			LBHD			RBHD			C7			T10			CLAV			LSHO			LUUPA			LMUPA			LDUPA			LLEP			LMEP			LRAD			LUL			LRFIN			RSHO			RUPA1			RMUPA			RDUPA			RLEP			RMEP			RRAD			RUL			RUFIN			LASI			RASI			USACR			LSACR			RSACR			LTHI1			LTHI2			LTHI3			LTHI4			LLFC			LMFC			LTIB1			LTIB2			LTIB3			LTIB4			LLMAL			LMMAL			LHEE			LMT1			LMT2			LMT5			RTHI			RTHI2			RTHI3			RTHI4			RLFC			RMFC			RTIB1			RTIB2			RTIB3			RTIB4			RLMAL			RMMAL			RHEE			RMT1			RMT2			RMT5			*61			*62			
		X1	Y1	Z1	X2	Y2	Z2	X3	Y3	Z3	X4	Y4	Z4	X5	Y5	Z5	X6	Y6	Z6	X7	Y7	Z7	X8	Y8	Z8	X9	Y9	Z9	X10	Y10	Z10	X11	Y11	Z11	X12	Y12	Z12	X13	Y13	Z13	X14	Y14	Z14	X15	Y15	Z15	X16	Y16	Z16	X17	Y17	Z17	X18	Y18	Z18	X19	Y19	Z19	X20	Y20	Z20	X21	Y21	Z21	X22	Y22	Z22	X23	Y23	Z23	X24	Y24	Z24	X25	Y25	Z25	X26	Y26	Z26	X27	Y27	Z27	X28	Y28	Z28	X29	Y29	Z29	X30	Y30	Z30	X31	Y31	Z31	X32	Y32	Z32	X33	Y33	Z33	X34	Y34	Z34	X35	Y35	Z35	X36	Y36	Z36	X37	Y37	Z37	X38	Y38	Z38	X39	Y39	Z39	X40	Y40	Z40	X41	Y41	Z41	X42	Y42	Z42	X43	Y43	Z43	X44	Y44	Z44	X45	Y45	Z45	X46	Y46	Z46	X47	Y47	Z47	X48	Y48	Z48	X49	Y49	Z49	X50	Y50	Z50	X51	Y51	Z51	X52	Y52	Z52	X53	Y53	Z53	X54	Y54	Z54	X55	Y55	Z55	X56	Y56	Z56	X57	Y57	Z57	X58	Y58	Z58	X59	Y59	Z59	X60	Y60	Z60	X61	Y61	Z61	X62	Y62	Z62	X63	Y63	Z63	

1	0	-192.0143585205079	1726.228149414063	-936.069274902344	-327.8553161621094	1698.336547851563	-958.9641723632815	-367.8812561035157	1669.083618164063	-819.9309692382815	-410.4463806152345	1553.26318359375	-873.5681152343752	-479.3069458007814	1232.018798828125	-863.0760498046877	-295.7389221191407	1464.259643554688	-870.5335693359377	-359.5538330078126	1522.644165039063	-1038.675415039063	-449.8103027343751	1394.5654296875	-1181.654907226563	-434.9086914062501	1347.000122070313	-1176.120361328125	-478.1152648925782	1342.40673828125	-1218.553833007813	-511.8577880859376	1296.068115234375	-1255.195678710938	-570.6755371093751	1291.0751953125	-1204.632690429688	-460.5953369140626	1064.59375	-1083.548583984375	-415.4927978515626	1043.726806640625	-1140.1962890625	-408.0046997070314	1078.279907226563	-1046.738037109375	-344.4870605468751	1516.316528320313	-700.9873046875001	-452.8249511718751	1426.23779296875	-544.9016113281251	-430.5600585937501	1382.3681640625	-534.3646240234376	-476.1184082031251	1382.044677734375	-495.6677246093751	-488.5015563964845	1322.873901367188	-454.0229797363282	-554.1962280273439	1303.984985351563	-505.3235168457032	-415.8522338867189	1114.643676757813	-635.5394897460939	-377.5787963867188	1083.522583007813	-579.2766113281251	-359.7418823242188	1123.363647460938	-682.3481445312501	-310.3323059082032	1040.195434570313	-963.1047973632815	-310.9353027343751	1038.885986328125	-742.6526489257814	-494.2328491210939	1101.995483398438	-851.721130371094	-501.7051696777345	1072.547729492188	-878.7745361328127	-504.9818725585939	1073.880493164063	-823.5456542968752	-446.2127075195314	803.0588989257815	-1054.8720703125	-410.780731201172	729.2973632812501	-1076.052124023438	-363.4224243164063	732.2326660156251	-1077.348022460938	-433.4017333984376	674.7632446289064	-1067.803955078125	-413.815643310547	544.1215820312501	-1080.482055664063	-410.2525634765626	502.4120483398439	-953.7053222656252	-372.7092895507813	319.7288818359376	-1078.2705078125	-442.3162841796876	285.2268066406251	-1122.193969726563	-399.6547851562501	276.8504638671876	-1111.096069335938	-385.9146118164064	193.7785186767579	-1088.0361328125	-446.787811279297	102.774642944336	-1113.938354492188	-410.260223388672	107.5685043334961	-1032.646240234375	-498.7296447753907	42.56547927856446	-1071.4814453125	-275.1353759765626	58.88282394409181	-1071.631225585938	-281.9336853027344	58.96992874145509	-1117.725708007813	-331.2662963867188	32.41284942626954	-1162.308471679688	-411.084197998047	798.5822753906252	-642.3141479492189	-382.6939086914063	739.2429199218751	-636.1882934570314	-350.5269470214844	735.0817260742189	-642.0224609375001	-420.918914794922	664.1433105468751	-643.9096069335939	-428.3088378906251	527.9454956054689	-638.1079101562501	-410.1772766113282	504.2984924316407	-768.5996093750002	-384.0354003906251	339.5028381347657	-633.5297851562501	-459.9797668457032	267.0166015625001	-613.1494750976564	-414.5722656250001	261.2731628417969	-613.5911865234376	-395.3081054687501	211.3780212402344	-640.1033935546876	-452.1616516113282	100.5898513793946	-615.9579467773439	-420.2110900878907	106.5089569091797	-699.9842529296876	-501.1534118652345	46.6999626159668	-677.4196777343751	-279.7806701660157	57.03319549560548	-642.6906738281251	-291.8385009765626	59.95243072509767	-604.0581054687501	-341.2714538574219	35.27124404907227	-559.3534545898439	nan	nan	nan	nan	nan	nan	
2	0.005	-192.2211914062501	1726.4326171875	-935.857849121094	-327.8693237304688	1698.267822265625	-958.769226074219	-367.8819580078126	1668.964965820313	-819.7175292968752	-410.513885498047	1553.263793945313	-873.2236328125002	-479.2294006347657	1231.982788085938	-862.7469482421877	-295.7815551757813	1464.197143554688	-870.308044433594	-359.6319885253907	1522.680053710938	-1038.404418945313	-450.1564331054689	1394.58837890625	-1181.278198242188	-435.2070922851564	1347.03125	-1175.815673828125	-478.4259033203126	1342.463745117188	-1218.13427734375	-512.2759399414064	1296.125732421875	-1254.678955078125	-570.8674926757814	1291.065185546875	-1204.194213867188	-460.647186279297	1064.57421875	-1083.34228515625	-415.5469665527345	1043.80712890625	-1140.041015625	-408.0462341308595	1078.2783203125	-1046.56201171875	-344.4805297851563	1516.187255859375	-700.6086425781251	-452.2802124023439	1426.419921875	-544.2861938476564	-430.4842529296876	1382.209594726563	-534.0582275390626	-476.0672912597657	1381.882934570313	-495.5065307617189	-488.3897705078126	1322.6904296875	-453.9218750000001	-554.2445068359376	1303.806884765625	-505.0846557617189	-415.518035888672	1114.847290039063	-635.6718139648439	-377.4638366699219	1083.379272460938	-579.1535644531251	-359.5084533691407	1123.294311523438	-682.2150878906251	-310.2595825195313	1040.258178710938	-962.9956665039065	-310.8456420898438	1038.784912109375	-742.4506835937501	-494.1648864746095	1101.984375	-851.5542602539065	-501.5393371582032	1072.5029296875	-878.573669433594	-504.8804016113282	1073.841918945313	-823.343688964844	-446.1563415527345	803.047058105469	-1054.703979492188	-410.7182617187501	729.2902832031251	-1075.944213867188	-363.4264221191407	732.2850341796876	-1077.257202148438	-433.2497558593751	674.7238159179689	-1067.644165039063	-413.6009216308595	544.1003417968751	-1080.403930664063	-409.7632446289064	502.3652343750001	-953.670349121094	-372.4844055175782	319.7379455566407	-1078.25927734375	-442.2058105468751	285.2442932128907	-1122.194702148438	-399.5348205566407	276.8823242187501	-1111.0771484375	-385.7911987304689	193.7559661865235	-1088.02978515625	-446.7998657226564	102.7514419555664	-1113.938720703125	-410.2585754394532	107.5447692871094	-1032.643188476563	-498.733612060547	42.59022903442384	-1071.47802734375	-275.1059265136719	58.81109619140626	-1071.617309570313	-281.8876647949219	58.91732788085939	-1117.766723632813	-331.2772827148438	32.40122222900391	-1162.364135742188	-411.2271118164064	798.6326293945315	-642.3074951171876	-383.1327209472657	739.1647949218751	-636.1626586914064	-351.2729187011719	734.8411254882814	-641.7833251953126	-421.3724060058595	664.1887817382814	-643.9011840820314	-429.0335998535157	527.9266967773439	-637.9335937500001	-410.9306945800782	504.3016662597657	-768.543640136719	-384.3756103515626	339.6498107910157	-633.5332031250001	-460.4658813476564	267.0123596191407	-613.0444946289064	-414.8562927246095	261.2992858886719	-613.6428222656251	-395.4505615234376	211.4214324951172	-640.1226806640626	-452.1613769531251	100.5922546386719	-615.8951416015626	-420.2342834472657	106.5416412353516	-699.9873657226564	-501.1507873535157	46.67720031738282	-677.4114379882814	-279.8268737792969	57.01435470581056	-642.7341918945314	-291.8947753906251	60.02174377441408	-604.0123901367189	-340.5711975097657	35.52546310424805	-558.8377685546876	nan	nan	nan	nan	nan	nan	
3	0.01	-192.2596282958985	1726.566040039063	-935.5855712890627	-327.9693603515626	1698.204833984375	-958.5502929687502	-368.0229492187501	1668.735107421875	-819.4588623046877	-410.5420532226564	1553.259521484375	-872.9468383789065	-479.1447753906251	1231.960815429688	-862.491882324219	-296.0165100097657	1464.123046875	-870.0333251953127	-359.7523803710938	1522.658325195313	-1038.070434570313	-450.4464111328126	1394.62939453125	-1180.950439453125	-435.5318908691407	1347.077758789063	-1175.509765625	-478.7712402343751	1342.517944335938	-1217.809326171875	-512.7013549804689	1296.152954101563	-1254.288208007813	-571.2267456054689	1291.075927734375	-1203.728637695313	-460.8149414062501	1064.5712890625	-1083.13916015625	-415.6592407226564	1043.885009765625	-1139.986328125	-408.1418457031251	1078.28515625	-1046.406860351563	-344.6215820312501	1516.0478515625	-700.2202148437501	-452.2355957031251	1426.307250976563	-544.0101318359376	-430.4839782714845	1382.088256835938	-533.8050537109376	-476.1620178222657	1381.689575195313	-495.217498779297	-488.320770263672	1322.540283203125	-453.6411743164064	-554.2680053710939	1303.591552734375	-504.8879699707032	-415.5179138183595	1114.400634765625	-635.1637573242189	-377.4154357910157	1083.20068359375	-578.9059448242189	-359.3925170898438	1123.217041015625	-682.0025634765626	-310.2623291015626	1040.276977539063	-962.8702392578127	-310.7500610351563	1038.675537109375	-742.2656250000001	-494.0399169921876	1101.953125	-851.3458251953127	-501.503875732422	1072.475952148438	-878.3531494140627	-504.7800598144532	1073.801025390625	-823.1766357421877	-446.0565490722657	803.0280761718752	-1054.5126953125	-410.5618591308595	729.3175659179689	-1075.860229492188	-363.2067871093751	732.3251953125001	-1077.16943359375	-433.1122436523439	674.7348632812501	-1067.53857421875	-413.4662170410157	544.0885009765626	-1080.294311523438	-409.2515258789064	502.3289489746095	-953.7117919921877	-372.3224487304688	319.7290649414063	-1078.295776367188	-442.1534729003907	285.2739257812501	-1122.176513671875	-399.477752685547	276.8910827636719	-1111.048461914063	-385.7942199707032	193.7431182861329	-1088.083374023438	-446.7976989746095	102.7711257934571	-1113.937255859375	-410.206024169922	107.5473022460938	-1032.673950195313	-498.7101135253907	42.57739257812501	-1071.47509765625	-275.1458740234376	58.73775100708009	-1071.612182617188	-281.8893127441407	58.85237503051759	-1117.807495117188	-331.2968139648438	32.38093566894532	-1162.368041992188	-411.4343872070314	798.6347656250002	-642.3151245117189	-383.5889587402344	739.1510620117189	-636.1786499023439	-351.5267944335938	734.8096923828126	-641.8299560546876	-421.9892883300782	663.9419555664064	-643.7585449218751	-429.8782958984376	528.0374145507814	-637.7946777343751	-411.7763671875001	504.2681884765626	-768.216979980469	-384.9293823242189	339.6755676269532	-633.3989257812501	-460.7252197265626	266.9005126953126	-613.0739746093751	-415.0354614257814	261.3167114257813	-613.7114257812501	-395.6097106933595	211.4894104003907	-640.1002807617189	-452.1345825195314	100.5911254882813	-615.8564453125001	-420.2582092285157	106.538818359375	-699.9521484375001	-501.1798400878907	46.68583297729493	-677.4332885742189	-279.8215026855469	57.12886428833009	-642.7086181640626	-291.8588867187501	59.97138595581056	-604.0593872070314	-341.2615051269532	35.29434967041016	-559.3749389648439	nan	nan	nan	nan	nan	nan	
4	0.015	-192.4774475097657	1726.671142578125	-935.2941894531252	-328.0267028808594	1698.109985351563	-958.3596191406252	-368.0301208496094	1668.617919921875	-819.204040527344	-410.6326599121095	1553.259521484375	-872.5778808593752	-479.114715576172	1231.879272460938	-862.241394042969	-296.1806030273438	1464.072631835938	-869.7188720703127	-359.8664550781251	1522.637084960938	-1037.754272460938	-450.7894287109376	1394.666137695313	-1180.578369140625	-435.8911132812501	1347.087768554688	-1175.203125	-479.1636962890626	1342.605224609375	-1217.481811523438	-513.0063476562501	1296.203979492188	-1253.916870117188	-571.5817871093751	1291.100463867188	-1203.229248046875	-460.9307556152345	1064.5341796875	-1082.9384765625	-415.7146301269532	1043.943603515625	-1139.847045898438	-408.2691955566407	1078.2626953125	-1046.22265625	-344.5989990234376	1515.913452148438	-699.8809204101564	-452.9016113281251	1425.7275390625	-544.1311035156251	-430.4838256835939	1381.959228515625	-533.4910888671876	-476.2666015625001	1381.430908203125	-494.9259643554689	-488.591278076172	1322.148803710938	-453.2144165039064	-554.2691040039064	1303.351440429688	-504.6381225585939	-415.2648010253907	1114.642700195313	-635.3574829101564	-377.3791809082032	1083.02294921875	-578.7292480468751	-359.2475280761719	1123.114379882813	-681.8436889648439	-310.2297058105469	1040.369384765625	-962.719177246094	-310.6516418457032	1038.661987304688	-742.1676635742189	-493.9896545410157	1101.926391601563	-851.130554199219	-501.3890075683595	1072.450439453125	-878.1689453125002	-504.5352478027345	1073.754150390625	-822.9417724609377	-445.9830322265626	802.9659423828127	-1054.3466796875	-410.5201416015626	729.3229980468751	-1075.731567382813	-363.1255187988282	732.3684692382814	-1077.123291015625	-432.9041748046876	674.6912841796876	-1067.446166992188	-413.3098144531251	544.1024169921876	-1080.251342773438	-409.1398925781251	502.310760498047	-953.6071777343752	-372.2077331542969	319.7059631347657	-1078.274169921875	-442.0733032226564	285.2717285156251	-1122.110717773438	-399.4214172363282	276.8980102539063	-1111.082641601563	-385.743133544922	193.7514648437501	-1088.077880859375	-446.782928466797	102.7657318115235	-1113.922729492188	-410.2095642089845	107.529037475586	-1032.65087890625	-498.7035522460939	42.5721549987793	-1071.49462890625	-275.1602478027344	58.7099952697754	-1071.63720703125	-281.8510742187501	58.81937789916994	-1117.829467773438	-331.2532653808594	32.32186126708985	-1162.40869140625	-411.7152404785157	798.6516723632815	-642.3389282226564	-383.9956054687501	739.0330810546876	-636.1846313476564	-351.8178405761719	734.7680664062501	-641.9043579101564	-423.0885314941407	664.4118652343751	-643.8270263671876	-430.633270263672	528.0258789062501	-637.7129516601564	-412.4925231933595	504.2509155273439	-768.1978759765627	-385.4646911621095	339.8768310546876	-633.3939819335939	-461.1370239257814	266.9064025878907	-613.0314941406251	-415.3290100097657	261.4101257324219	-613.6997680664064	-395.8017578125001	211.5445404052735	-640.1558837890626	-452.1315002441407	100.5452194213867	-615.8370971679689	-420.2582092285157	106.538818359375	-699.9521484375001	-501.1817932128907	46.63202285766602	-677.4237060546876	-279.8078613281251	57.1282081604004	-642.7054443359376	-291.9094848632813	59.98928070068361	-604.0385131835939	-341.2763671875001	35.3105812072754	-559.3590698242189	nan	nan	nan	nan	nan	nan	
